<mxfile host="Electron" agent="Mozilla/5.0 (Windows NT 10.0; Win64; x64) AppleWebKit/537.36 (KHTML, like Gecko) draw.io/27.0.9 Chrome/134.0.6998.205 Electron/35.4.0 Safari/537.36" version="27.0.9">
  <diagram name="Page-1" id="ZX4k86PhdIE9LL6CCi2b">
    <mxGraphModel dx="1426" dy="849" grid="1" gridSize="10" guides="1" tooltips="1" connect="1" arrows="1" fold="1" page="1" pageScale="1" pageWidth="850" pageHeight="1100" math="0" shadow="0">
      <root>
        <mxCell id="0" />
        <mxCell id="1" parent="0" />
        <mxCell id="KLFygHrGbKeZj93pWnKw-38" value="" style="rounded=1;whiteSpace=wrap;html=1;strokeColor=#d6b656;align=center;verticalAlign=middle;fontFamily=Helvetica;fontSize=12;fontStyle=0;horizontal=1;fillColor=none;shadow=0;sketch=1;curveFitting=1;jiggle=2;dashed=1;arcSize=14;" parent="1" vertex="1">
          <mxGeometry x="570" y="270" width="270" height="390" as="geometry" />
        </mxCell>
        <mxCell id="KLFygHrGbKeZj93pWnKw-36" value="" style="rounded=1;whiteSpace=wrap;html=1;strokeColor=#6c8ebf;align=center;verticalAlign=middle;fontFamily=Helvetica;fontSize=12;fontStyle=0;horizontal=1;fillColor=none;glass=1;sketch=1;curveFitting=1;jiggle=2;dashed=1;" parent="1" vertex="1">
          <mxGeometry x="20" y="270" width="500" height="390" as="geometry" />
        </mxCell>
        <mxCell id="TkYJS-mrM72N7yGFPm2A-1" value="&lt;font style=&quot;font-size: 22px;&quot;&gt;Integration Model (How the tables are related)&lt;/font&gt;" style="text;html=1;align=center;verticalAlign=middle;resizable=0;points=[];autosize=1;strokeColor=none;fillColor=none;" parent="1" vertex="1">
          <mxGeometry x="30" y="120" width="470" height="40" as="geometry" />
        </mxCell>
        <mxCell id="KLFygHrGbKeZj93pWnKw-2" value="crm_cust_info&lt;span style=&quot;white-space: pre;&quot;&gt;&#x9;&lt;/span&gt;" style="swimlane;fontStyle=0;childLayout=stackLayout;horizontal=1;startSize=30;horizontalStack=0;resizeParent=1;resizeParentMax=0;resizeLast=0;collapsible=1;marginBottom=0;whiteSpace=wrap;html=1;strokeColor=default;rounded=1;glass=0;shadow=0;swimlaneLine=1;fillColor=#dae8fc;" parent="1" vertex="1">
          <mxGeometry x="320" y="450" width="140" height="110" as="geometry" />
        </mxCell>
        <mxCell id="KLFygHrGbKeZj93pWnKw-3" value="cst_id" style="text;strokeColor=none;fillColor=none;align=left;verticalAlign=middle;spacingLeft=4;spacingRight=4;overflow=hidden;points=[[0,0.5],[1,0.5]];portConstraint=eastwest;rotatable=0;whiteSpace=wrap;html=1;rounded=1;" parent="KLFygHrGbKeZj93pWnKw-2" vertex="1">
          <mxGeometry y="30" width="140" height="30" as="geometry" />
        </mxCell>
        <mxCell id="KLFygHrGbKeZj93pWnKw-30" value="cst_key" style="text;strokeColor=none;fillColor=none;align=left;verticalAlign=middle;spacingLeft=4;spacingRight=4;overflow=hidden;points=[[0,0.5],[1,0.5]];portConstraint=eastwest;rotatable=0;whiteSpace=wrap;html=1;rounded=1;" parent="KLFygHrGbKeZj93pWnKw-2" vertex="1">
          <mxGeometry y="60" width="140" height="30" as="geometry" />
        </mxCell>
        <mxCell id="KVU9TGMa9YWBc1P80n0n-9" value="CUSTOMER" style="text;html=1;align=center;verticalAlign=middle;whiteSpace=wrap;rounded=0;fillColor=#d5e8d4;strokeColor=#82b366;" vertex="1" parent="KLFygHrGbKeZj93pWnKw-2">
          <mxGeometry y="90" width="140" height="20" as="geometry" />
        </mxCell>
        <mxCell id="KLFygHrGbKeZj93pWnKw-6" value="Customer Information" style="text;html=1;align=center;verticalAlign=middle;resizable=0;points=[];autosize=1;strokeColor=none;fillColor=none;" parent="1" vertex="1">
          <mxGeometry x="320" y="420" width="140" height="30" as="geometry" />
        </mxCell>
        <mxCell id="KLFygHrGbKeZj93pWnKw-7" value="crm_cust_info&lt;span style=&quot;white-space: pre;&quot;&gt;&#x9;&lt;/span&gt;" style="swimlane;fontStyle=0;childLayout=stackLayout;horizontal=1;startSize=30;horizontalStack=0;resizeParent=1;resizeParentMax=0;resizeLast=0;collapsible=1;marginBottom=0;whiteSpace=wrap;html=1;strokeColor=default;rounded=1;glass=0;shadow=0;swimlaneLine=1;fillColor=#dae8fc;" parent="1" vertex="1">
          <mxGeometry x="320" y="330" width="140" height="80" as="geometry" />
        </mxCell>
        <mxCell id="KLFygHrGbKeZj93pWnKw-8" value="prd_key" style="text;strokeColor=none;fillColor=none;align=left;verticalAlign=middle;spacingLeft=4;spacingRight=4;overflow=hidden;points=[[0,0.5],[1,0.5]];portConstraint=eastwest;rotatable=0;whiteSpace=wrap;html=1;rounded=1;" parent="KLFygHrGbKeZj93pWnKw-7" vertex="1">
          <mxGeometry y="30" width="140" height="30" as="geometry" />
        </mxCell>
        <mxCell id="KVU9TGMa9YWBc1P80n0n-4" value="PRODUCT" style="text;html=1;align=center;verticalAlign=middle;whiteSpace=wrap;rounded=0;fillColor=#f8cecc;strokeColor=#b85450;" vertex="1" parent="KLFygHrGbKeZj93pWnKw-7">
          <mxGeometry y="60" width="140" height="20" as="geometry" />
        </mxCell>
        <mxCell id="KLFygHrGbKeZj93pWnKw-9" value="Current &amp;amp; History Product Information" style="text;html=1;align=center;verticalAlign=middle;resizable=0;points=[];autosize=1;strokeColor=none;fillColor=none;" parent="1" vertex="1">
          <mxGeometry x="280" y="300" width="220" height="30" as="geometry" />
        </mxCell>
        <mxCell id="KLFygHrGbKeZj93pWnKw-12" value="crm_sales_details" style="swimlane;fontStyle=0;childLayout=stackLayout;horizontal=1;startSize=30;horizontalStack=0;resizeParent=1;resizeParentMax=0;resizeLast=0;collapsible=1;marginBottom=0;whiteSpace=wrap;html=1;strokeColor=default;rounded=1;glass=0;shadow=0;swimlaneLine=1;fillColor=#dae8fc;" parent="1" vertex="1">
          <mxGeometry x="80" y="420" width="140" height="110" as="geometry" />
        </mxCell>
        <mxCell id="KLFygHrGbKeZj93pWnKw-13" value="prd_key&lt;div&gt;&lt;br&gt;&lt;/div&gt;" style="text;strokeColor=none;fillColor=none;align=left;verticalAlign=middle;spacingLeft=4;spacingRight=4;overflow=hidden;points=[[0,0.5],[1,0.5]];portConstraint=eastwest;rotatable=0;whiteSpace=wrap;html=1;rounded=1;" parent="KLFygHrGbKeZj93pWnKw-12" vertex="1">
          <mxGeometry y="30" width="140" height="30" as="geometry" />
        </mxCell>
        <mxCell id="KLFygHrGbKeZj93pWnKw-16" value="cst_id&lt;br&gt;&lt;div&gt;&lt;br&gt;&lt;/div&gt;" style="text;strokeColor=none;fillColor=none;align=left;verticalAlign=middle;spacingLeft=4;spacingRight=4;overflow=hidden;points=[[0,0.5],[1,0.5]];portConstraint=eastwest;rotatable=0;whiteSpace=wrap;html=1;rounded=1;" parent="KLFygHrGbKeZj93pWnKw-12" vertex="1">
          <mxGeometry y="60" width="140" height="30" as="geometry" />
        </mxCell>
        <mxCell id="KVU9TGMa9YWBc1P80n0n-15" value="SALES" style="text;html=1;align=center;verticalAlign=middle;whiteSpace=wrap;rounded=0;fillColor=#dae8fc;strokeColor=#6c8ebf;" vertex="1" parent="KLFygHrGbKeZj93pWnKw-12">
          <mxGeometry y="90" width="140" height="20" as="geometry" />
        </mxCell>
        <mxCell id="KLFygHrGbKeZj93pWnKw-14" value="Transactional Records about Sales &amp;amp; Orders" style="text;html=1;align=center;verticalAlign=middle;resizable=0;points=[];autosize=1;strokeColor=none;fillColor=none;" parent="1" vertex="1">
          <mxGeometry x="10" y="390" width="260" height="30" as="geometry" />
        </mxCell>
        <mxCell id="KLFygHrGbKeZj93pWnKw-17" style="edgeStyle=orthogonalEdgeStyle;rounded=0;orthogonalLoop=1;jettySize=auto;html=1;fontFamily=Helvetica;fontSize=12;fontColor=default;fontStyle=0;horizontal=1;" parent="1" source="KLFygHrGbKeZj93pWnKw-16" target="KLFygHrGbKeZj93pWnKw-3" edge="1">
          <mxGeometry relative="1" as="geometry" />
        </mxCell>
        <mxCell id="KLFygHrGbKeZj93pWnKw-18" style="edgeStyle=orthogonalEdgeStyle;rounded=0;orthogonalLoop=1;jettySize=auto;html=1;entryX=0;entryY=0.5;entryDx=0;entryDy=0;fontFamily=Helvetica;fontSize=12;fontColor=default;fontStyle=0;horizontal=1;" parent="1" source="KLFygHrGbKeZj93pWnKw-13" target="KLFygHrGbKeZj93pWnKw-8" edge="1">
          <mxGeometry relative="1" as="geometry" />
        </mxCell>
        <mxCell id="KLFygHrGbKeZj93pWnKw-19" value="erp_cust_az12" style="swimlane;fontStyle=0;childLayout=stackLayout;horizontal=1;startSize=30;horizontalStack=0;resizeParent=1;resizeParentMax=0;resizeLast=0;collapsible=1;marginBottom=0;whiteSpace=wrap;html=1;strokeColor=#d6b656;rounded=1;glass=0;shadow=0;swimlaneLine=1;fillColor=#fff2cc;" parent="1" vertex="1">
          <mxGeometry x="640" y="450" width="140" height="80" as="geometry" />
        </mxCell>
        <mxCell id="KLFygHrGbKeZj93pWnKw-20" value="cid" style="text;strokeColor=none;fillColor=none;align=left;verticalAlign=middle;spacingLeft=4;spacingRight=4;overflow=hidden;points=[[0,0.5],[1,0.5]];portConstraint=eastwest;rotatable=0;whiteSpace=wrap;html=1;rounded=1;" parent="KLFygHrGbKeZj93pWnKw-19" vertex="1">
          <mxGeometry y="30" width="140" height="30" as="geometry" />
        </mxCell>
        <mxCell id="KVU9TGMa9YWBc1P80n0n-10" value="CUSTOMER" style="text;html=1;align=center;verticalAlign=middle;whiteSpace=wrap;rounded=0;fillColor=#d5e8d4;strokeColor=#82b366;" vertex="1" parent="KLFygHrGbKeZj93pWnKw-19">
          <mxGeometry y="60" width="140" height="20" as="geometry" />
        </mxCell>
        <mxCell id="KLFygHrGbKeZj93pWnKw-21" value="Extra Customer Information (Birthdate)" style="text;html=1;align=center;verticalAlign=middle;resizable=0;points=[];autosize=1;strokeColor=none;fillColor=none;" parent="1" vertex="1">
          <mxGeometry x="595" y="420" width="230" height="30" as="geometry" />
        </mxCell>
        <mxCell id="KLFygHrGbKeZj93pWnKw-22" value="erp_loc_a101" style="swimlane;fontStyle=0;childLayout=stackLayout;horizontal=1;startSize=30;horizontalStack=0;resizeParent=1;resizeParentMax=0;resizeLast=0;collapsible=1;marginBottom=0;whiteSpace=wrap;html=1;strokeColor=#d6b656;rounded=1;glass=0;shadow=0;swimlaneLine=1;fillColor=#fff2cc;" parent="1" vertex="1">
          <mxGeometry x="640" y="560" width="140" height="80" as="geometry" />
        </mxCell>
        <mxCell id="KLFygHrGbKeZj93pWnKw-23" value="cid" style="text;strokeColor=none;fillColor=none;align=left;verticalAlign=middle;spacingLeft=4;spacingRight=4;overflow=hidden;points=[[0,0.5],[1,0.5]];portConstraint=eastwest;rotatable=0;whiteSpace=wrap;html=1;rounded=1;" parent="KLFygHrGbKeZj93pWnKw-22" vertex="1">
          <mxGeometry y="30" width="140" height="30" as="geometry" />
        </mxCell>
        <mxCell id="KVU9TGMa9YWBc1P80n0n-14" value="CUSTOMER" style="text;html=1;align=center;verticalAlign=middle;whiteSpace=wrap;rounded=0;fillColor=#d5e8d4;strokeColor=#82b366;" vertex="1" parent="KLFygHrGbKeZj93pWnKw-22">
          <mxGeometry y="60" width="140" height="20" as="geometry" />
        </mxCell>
        <mxCell id="KLFygHrGbKeZj93pWnKw-24" value="Extra Customer Information (Birthdate)" style="text;html=1;align=center;verticalAlign=middle;resizable=0;points=[];autosize=1;strokeColor=none;fillColor=none;" parent="1" vertex="1">
          <mxGeometry x="600" y="530" width="230" height="30" as="geometry" />
        </mxCell>
        <mxCell id="KLFygHrGbKeZj93pWnKw-26" value="erp_px_cat_g1v2" style="swimlane;fontStyle=0;childLayout=stackLayout;horizontal=1;startSize=30;horizontalStack=0;resizeParent=1;resizeParentMax=0;resizeLast=0;collapsible=1;marginBottom=0;whiteSpace=wrap;html=1;strokeColor=#d6b656;rounded=1;glass=0;shadow=0;swimlaneLine=1;fillColor=#fff2cc;" parent="1" vertex="1">
          <mxGeometry x="640" y="340" width="140" height="80" as="geometry" />
        </mxCell>
        <mxCell id="KLFygHrGbKeZj93pWnKw-27" value="id&lt;div&gt;&lt;br&gt;&lt;/div&gt;" style="text;strokeColor=none;fillColor=none;align=left;verticalAlign=middle;spacingLeft=4;spacingRight=4;overflow=hidden;points=[[0,0.5],[1,0.5]];portConstraint=eastwest;rotatable=0;whiteSpace=wrap;html=1;rounded=1;" parent="KLFygHrGbKeZj93pWnKw-26" vertex="1">
          <mxGeometry y="30" width="140" height="30" as="geometry" />
        </mxCell>
        <mxCell id="KVU9TGMa9YWBc1P80n0n-8" value="PRODUCT" style="text;html=1;align=center;verticalAlign=middle;whiteSpace=wrap;rounded=0;fillColor=#f8cecc;strokeColor=#b85450;" vertex="1" parent="KLFygHrGbKeZj93pWnKw-26">
          <mxGeometry y="60" width="140" height="20" as="geometry" />
        </mxCell>
        <mxCell id="KLFygHrGbKeZj93pWnKw-28" value="Product Categories" style="text;html=1;align=center;verticalAlign=middle;resizable=0;points=[];autosize=1;strokeColor=none;fillColor=none;" parent="1" vertex="1">
          <mxGeometry x="650" y="310" width="130" height="30" as="geometry" />
        </mxCell>
        <mxCell id="KLFygHrGbKeZj93pWnKw-29" style="edgeStyle=orthogonalEdgeStyle;rounded=0;orthogonalLoop=1;jettySize=auto;html=1;entryX=0.029;entryY=0.167;entryDx=0;entryDy=0;entryPerimeter=0;fontFamily=Helvetica;fontSize=12;fontColor=default;fontStyle=0;horizontal=1;" parent="1" source="KLFygHrGbKeZj93pWnKw-8" target="KLFygHrGbKeZj93pWnKw-27" edge="1">
          <mxGeometry relative="1" as="geometry" />
        </mxCell>
        <mxCell id="KLFygHrGbKeZj93pWnKw-31" style="edgeStyle=orthogonalEdgeStyle;rounded=0;orthogonalLoop=1;jettySize=auto;html=1;fontFamily=Helvetica;fontSize=12;fontColor=default;fontStyle=0;horizontal=1;" parent="1" source="KLFygHrGbKeZj93pWnKw-30" target="KLFygHrGbKeZj93pWnKw-20" edge="1">
          <mxGeometry relative="1" as="geometry" />
        </mxCell>
        <mxCell id="KLFygHrGbKeZj93pWnKw-32" style="edgeStyle=orthogonalEdgeStyle;rounded=0;orthogonalLoop=1;jettySize=auto;html=1;entryX=0;entryY=0.5;entryDx=0;entryDy=0;fontFamily=Helvetica;fontSize=12;fontColor=default;fontStyle=0;horizontal=1;" parent="1" source="KLFygHrGbKeZj93pWnKw-30" target="KLFygHrGbKeZj93pWnKw-23" edge="1">
          <mxGeometry relative="1" as="geometry" />
        </mxCell>
        <mxCell id="KLFygHrGbKeZj93pWnKw-37" value="&lt;b&gt;&lt;font style=&quot;font-size: 17px;&quot;&gt;CRM&lt;/font&gt;&lt;/b&gt;" style="rounded=1;whiteSpace=wrap;html=1;strokeColor=#6c8ebf;align=center;verticalAlign=middle;fontFamily=Helvetica;fontSize=12;fontStyle=0;horizontal=1;fillColor=#dae8fc;" parent="1" vertex="1">
          <mxGeometry x="180" y="250" width="140" height="40" as="geometry" />
        </mxCell>
        <mxCell id="KLFygHrGbKeZj93pWnKw-39" value="&lt;b&gt;&lt;font style=&quot;font-size: 15px;&quot;&gt;ERP&lt;/font&gt;&lt;/b&gt;" style="rounded=1;whiteSpace=wrap;html=1;strokeColor=#d6b656;align=center;verticalAlign=middle;fontFamily=Helvetica;fontSize=12;fontStyle=0;horizontal=1;fillColor=#fff2cc;" parent="1" vertex="1">
          <mxGeometry x="650" y="250" width="130" height="35" as="geometry" />
        </mxCell>
      </root>
    </mxGraphModel>
  </diagram>
</mxfile>
